<?xml version="1.0" encoding="utf-8"?>
<!DOCTYPE svg PUBLIC "-//W3C//DTD SVG 1.0//EN" "http://www.w3.org/TR/2001/REC-SVG-20010904/DTD/svg10.dtd">
<svg version="1.0" xmlns="http://www.w3.org/2000/svg" width="130px" height="130px" viewBox="0 0 130 130" preserveAspectRatio="xMidYMid meet">
 <g fill="#000000">
  <path d="M3.25 126.90 c-0.15 -0.35 -0.20 -8.40 -0.15 -17.90 l0.15 -17.25 4 -0.15 c3.80 -0.15 4.05 -0.20 4.65 -1.45 0.30 -0.75 0.60 -1.65 0.60 -2 0 -0.35 0.45 -1.50 1 -2.50 0.55 -1.05 1 -2.35 1 -2.90 0 -0.55 0.45 -1.55 1 -2.25 0.55 -0.70 1 -1.65 1 -2.15 0 -0.45 0.45 -1.70 1 -2.70 0.55 -1.05 1 -2.30 1 -2.75 0 -0.50 0.45 -1.75 1 -2.75 0.55 -1.05 1 -2.25 1 -2.65 0 -0.40 0.45 -1.40 1 -2.25 0.55 -0.80 1 -1.90 1 -2.40 0 -0.45 0.45 -1.70 1 -2.70 0.55 -1.05 1 -2.25 1 -2.65 0 -0.40 0.45 -1.40 1 -2.25 0.55 -0.80 1 -2 1 -2.65 0 -0.60 0.45 -1.95 1 -2.95 0.55 -1.05 1 -2.25 1 -2.70 0 -0.45 0.55 -1.60 1.20 -2.60 0.65 -0.95 1.35 -2.30 1.55 -2.90 0.20 -0.65 0.45 -1.60 0.55 -2.05 0.20 -0.65 0 -0.90 -0.75 -0.90 -1.05 0 -1.05 -0.15 -1.05 -17.75 l0 -17.70 35.15 -0.15 c19.30 -0.10 35.40 -0.05 35.75 0.05 0.45 0.10 0.60 4.10 0.60 17.85 l0 17.70 -1.70 0 c-1.75 0 -1.75 0 -1 1.40 0.35 0.75 0.70 1.70 0.70 2.10 0 0.40 0.40 1.45 0.90 2.25 0.55 0.85 1.10 2.35 1.30 3.40 0.20 1 0.55 1.85 0.75 1.85 0.25 0 0.70 1.15 1.05 2.50 0.35 1.40 0.80 2.60 1 2.75 0.20 0.15 0.65 1.35 1 2.70 0.30 1.40 0.90 2.75 1.30 3.10 0.40 0.30 0.70 1 0.70 1.50 0 0.55 0.45 1.80 1 2.80 0.55 1.05 1 2.20 1 2.60 0 0.35 0.45 1.40 0.95 2.25 0.50 0.85 1.10 2.35 1.30 3.30 0.20 0.95 0.70 2.20 1.05 2.75 0.40 0.55 0.70 1.45 0.70 2 0 0.55 0.45 1.75 1 2.65 0.55 0.90 1 1.90 1 2.25 0 0.35 0.45 1.45 1 2.50 0.55 1 1 2.20 1 2.60 0 0.45 0.35 1.45 0.75 2.25 0.75 1.45 0.85 1.50 4.75 1.50 l4 0 0 18 0 18 -27.25 0 -27.25 0 0 -15.50 0 -15.50 -7.50 0 -7.50 0 -0.10 15.40 -0.15 15.35 -26.90 0.15 c-21.30 0.10 -26.95 0 -27.10 -0.50z m46.25 -17.40 l0 -10.50 -2 0 c-1.80 0 -2 -0.10 -2 -1.30 0 -0.70 -0.20 -1.15 -0.50 -0.95 -0.25 0.15 -0.50 0.85 -0.50 1.55 0 1.05 0.20 1.20 2 1.20 l2 0 0 10 0 10 -18.50 0 -18.50 0 0 -9.95 0 -10 2.65 -0.20 2.60 -0.15 -3.10 -0.10 -3.15 -0.10 0 10.50 0 10.50 19.50 0 19.50 0 0 -10.50z m70 0 l0 -10.50 -3.10 0.10 -3.15 0.10 2.65 0.15 2.60 0.20 0 10 0 9.95 -18.50 0 -18.50 0 0 -10 0 -10 2 0 c1.80 0 2 -0.15 2 -1.20 0 -0.70 -0.20 -1.40 -0.50 -1.55 -0.30 -0.20 -0.50 0.25 -0.50 0.95 0 1.20 -0.20 1.30 -2 1.30 l-2 0 0 10.50 0 10.50 19.50 0 19.50 0 0 -10.50z m-7.30 -13.20 c-0.15 -0.75 -0.40 -1.25 -0.55 -1.15 -0.10 0.15 -0.05 0.85 0.15 1.55 0.15 0.75 0.40 1.25 0.55 1.15 0.10 -0.15 0.05 -0.85 -0.15 -1.55z m-29.25 -6.20 l-0.55 -1.60 -17.15 0 c-9.45 0 -17.30 0.15 -17.40 0.40 -0.15 0.20 7.50 0.30 16.95 0.20 l17.25 -0.15 0.55 1.55 c0.25 0.85 0.60 1.45 0.70 1.35 0.10 -0.10 -0.05 -0.90 -0.35 -1.75z m-6.70 -18.45 c-0.20 -0.50 -0.60 -1.55 -0.85 -2.40 -0.85 -2.35 -1.15 -2.40 -1.15 -0.10 l0 2.10 -9.45 0.15 -9.40 0.10 0.15 -2.20 c0.15 -1.75 0.05 -2.10 -0.40 -1.70 -0.35 0.30 -0.65 1.20 -0.65 2 0 0.80 -0.30 1.55 -0.75 1.70 -2.30 0.90 0.40 1.20 11.05 1.20 11.05 0 11.80 -0.05 11.45 -0.85z m-9.75 -24.15 c0 -0.75 -1.15 -3 -1.50 -3 -0.35 0 -1.50 2.25 -1.50 3 0 0.30 0.70 0.50 1.50 0.50 0.85 0 1.50 -0.20 1.50 -0.50z m-22.35 -16.35 c0.30 -0.50 -0.30 -0.65 -2.60 -0.65 l-3.05 0 0 -10 0 -10 27 0 27 0 -0.10 9.90 -0.15 9.85 -3.15 0.15 c-3.10 0.15 -3.10 0.15 -2.80 1.50 0.75 2.95 1.15 3.45 1.15 1.50 l0.05 -1.90 3 0 3 0 0 -10.75 0 -10.75 -28 0 -28 0 0 10.75 0 10.75 2.50 0 2.50 0 0.05 1.90 0.05 1.85 0.60 -1.75 c0.30 -0.95 0.75 -2.05 0.95 -2.35z"/>
 </g>
 <g fill="#ffffff">
  <path d="M0 65 l0 -65 65 0 65 0 0 65 0 65 -65 0 -65 0 0 -65z m55.90 45.40 l0.10 -15.40 9 0 9 0 0 15.50 0 15.50 25.75 0 25.75 0 0 -16.50 0 -16.50 -4 0 c-3.90 0 -4 -0.05 -4.75 -1.50 -0.40 -0.80 -0.75 -1.80 -0.75 -2.25 0 -0.40 -0.45 -1.60 -1 -2.60 -0.55 -1.05 -1 -2.15 -1 -2.50 0 -0.35 -0.45 -1.35 -1 -2.25 -0.55 -0.90 -1 -2.10 -1 -2.65 0 -0.55 -0.30 -1.45 -0.70 -2 -0.35 -0.55 -0.85 -1.80 -1.05 -2.75 -0.20 -0.95 -0.80 -2.45 -1.30 -3.30 -0.50 -0.85 -0.95 -1.90 -0.95 -2.25 0 -0.40 -0.45 -1.55 -1 -2.60 -0.55 -1 -1 -2.25 -1 -2.80 0 -0.50 -0.30 -1.20 -0.70 -1.50 -0.40 -0.35 -1 -1.70 -1.30 -3.10 -0.35 -1.35 -0.80 -2.55 -1 -2.70 -0.20 -0.15 -0.65 -1.35 -1 -2.75 -0.35 -1.35 -0.80 -2.50 -1.05 -2.50 -0.20 0 -0.55 -0.85 -0.75 -1.85 -0.20 -1.05 -0.65 -2.35 -1.05 -2.90 -0.35 -0.55 -0.90 -1.90 -1.20 -2.95 -0.30 -1.10 -1.10 -2.80 -1.75 -3.75 -0.65 -1 -1.20 -1.95 -1.20 -2.15 0 -0.25 1.15 -0.40 2.50 -0.40 l2.50 0 0 -16.20 c0 -10.35 -0.20 -16.30 -0.50 -16.40 -0.25 -0.10 -15.70 -0.10 -34.25 0 l-33.75 0.10 0 16.25 0 16.25 1.75 0 c1.85 0 2.35 0.90 1.05 1.95 -0.40 0.30 -0.95 1.60 -1.25 2.80 -0.30 1.20 -1.10 3.05 -1.80 4.05 -0.70 1 -1.25 2.20 -1.25 2.65 0 0.45 -0.45 1.65 -1 2.70 -0.55 1 -1 2.35 -1 2.95 0 0.65 -0.45 1.85 -1 2.65 -0.55 0.85 -1 1.85 -1 2.25 0 0.40 -0.45 1.60 -1 2.65 -0.55 1 -1 2.25 -1 2.70 0 0.50 -0.45 1.60 -1 2.40 -0.55 0.85 -1 1.85 -1 2.25 0 0.40 -0.45 1.60 -1 2.65 -0.55 1 -1 2.25 -1 2.75 0 0.45 -0.45 1.70 -1 2.75 -0.55 1 -1 2.25 -1 2.70 0 0.50 -0.45 1.45 -1 2.15 -0.55 0.70 -1 1.70 -1 2.25 0 0.55 -0.45 1.85 -1 2.90 -0.55 1 -1 2.15 -1 2.50 0 0.35 -0.30 1.25 -0.60 2 -0.60 1.25 -0.85 1.30 -4.65 1.45 l-4 0.15 -0.05 16 c-0.05 8.80 0 16.15 0.15 16.40 0.10 0.20 11.60 0.30 25.55 0.25 l25.35 -0.15 0.15 -15.35z"/>
  <path d="M9 109.50 l0 -12 3.50 0 c3.15 0 3.50 -0.10 3.50 -1 0 -0.55 0.45 -1.70 1 -2.60 0.55 -0.90 1 -2.05 1 -2.55 0 -0.45 0.45 -1.70 1 -2.70 0.55 -1.05 1 -2.15 1 -2.50 0 -0.35 0.45 -1.35 1 -2.25 0.55 -0.90 1 -2.05 1 -2.55 0 -0.45 0.45 -1.70 1 -2.70 0.55 -1.05 1 -2.35 1 -2.95 0 -0.60 0.30 -1.35 0.70 -1.65 0.40 -0.30 0.95 -1.65 1.30 -2.95 0.30 -1.30 0.75 -2.55 1 -2.85 0.20 -0.25 0.65 -1.45 0.95 -2.60 0.35 -1.20 0.80 -2.15 1.05 -2.15 0.20 0 0.55 -0.75 0.75 -1.60 0.45 -2 1.75 -4.90 2.60 -5.80 0.35 -0.35 0.65 -1.15 0.65 -1.75 0 -0.60 0.45 -1.95 1 -3 0.55 -1 1 -2.25 1 -2.70 0 -0.50 0.45 -1.65 1 -2.55 0.55 -0.90 1 -1.90 1 -2.25 0.05 -0.30 0.45 -1.50 1 -2.60 0.55 -1.10 0.95 -2.35 1 -2.75 0 -0.40 0.45 -1.50 1 -2.40 1.60 -2.60 1.35 -3.10 -1.50 -3.10 l-2.50 0 0 -12.25 0 -12.25 29.50 0 29.50 0 0 12.25 0 12.25 -3 0 c-1.65 0 -3 0.20 -3 0.50 0 0.30 0.45 1.35 1 2.35 0.55 1.05 1 2.15 1 2.50 0 0.35 0.45 1.50 1 2.50 0.55 1.05 1 2.25 1 2.65 0 0.40 0.40 1.65 0.95 2.75 0.50 1.10 1.60 3.45 2.45 5.25 0.85 1.80 1.70 3.90 1.85 4.75 0.20 0.80 0.50 1.60 0.70 1.75 0.20 0.15 0.75 1.30 1.20 2.65 0.45 1.30 1.25 3.40 1.70 4.75 0.45 1.30 1 2.45 1.20 2.60 0.20 0.15 0.55 0.95 0.75 1.75 0.20 0.85 0.75 2.30 1.20 3.25 0.50 0.95 1 2.60 1.20 3.65 0.20 1 0.55 1.85 0.80 1.85 0.25 0 0.70 0.95 1.05 2.15 0.30 1.15 0.75 2.35 0.95 2.60 0.25 0.30 0.70 1.55 1 2.85 0.35 1.30 0.90 2.65 1.30 2.95 0.40 0.30 0.70 1 0.70 1.50 0 0.55 0.45 1.80 1 2.80 0.55 1.05 1 2.40 1 3 0 1.10 0.20 1.15 3.50 1.15 l3.50 0 0 12 0 12 -21 0 -21 0 0 -12 0 -12 2.05 0 c1.90 0 2.05 -0.10 1.75 -1.15 -0.15 -0.65 -0.75 -2.20 -1.30 -3.50 l-1.05 -2.35 -15.50 0 c-14.30 0 -15.50 0.05 -15.75 0.90 -0.15 0.45 -0.70 1.65 -1.25 2.65 -1.45 2.85 -1.30 3.45 1.05 3.45 l2 0 0 12 0 12 -21 0 -21 0 0 -12z m38 0 l0 -8.50 -2.50 0 c-1.85 0 -2.50 -0.20 -2.50 -0.70 0 -0.40 0.25 -0.90 0.50 -1.05 0.30 -0.15 0.50 -0.95 0.50 -1.75 0 -0.80 0.45 -2.25 1 -3.25 0.55 -1 1 -2.30 1 -2.95 0 -0.65 0.35 -1.85 0.80 -2.70 l0.75 -1.60 18.70 0 18.65 0 0.60 1.90 c0.30 1 0.80 2.75 1.10 3.85 0.30 1.10 0.75 2.25 0.95 2.50 0.15 0.30 0.45 1.30 0.55 2.25 0.15 0.95 0.40 2.15 0.65 2.65 0.30 0.75 0.05 0.85 -2.20 0.85 l-2.55 0 0 8.50 0 8.50 17 0 17 0 0 -8.50 0 -8.50 -2.40 0 c-2.80 0 -3.90 -0.85 -4.40 -3.55 -0.20 -0.95 -0.75 -2.50 -1.30 -3.45 -0.50 -0.95 -0.90 -2.20 -0.90 -2.80 0 -0.60 -0.35 -1.35 -0.75 -1.70 -0.40 -0.35 -0.85 -1.40 -1.05 -2.45 -0.20 -1 -0.60 -2.15 -1 -2.55 -0.35 -0.40 -0.85 -1.75 -1.15 -3 -0.25 -1.25 -0.75 -2.30 -1 -2.40 -0.30 -0.10 -0.65 -1 -0.85 -2 -0.15 -1 -0.60 -2.30 -0.95 -2.90 -0.35 -0.55 -0.95 -2.05 -1.25 -3.25 -0.35 -1.20 -0.90 -2.55 -1.25 -2.95 -0.35 -0.40 -0.75 -1.40 -0.85 -2.25 -0.10 -0.85 -0.40 -1.45 -0.75 -1.40 -0.35 0.10 -0.50 -0.15 -0.35 -0.55 0.15 -0.35 -0.10 -1 -0.50 -1.40 -0.40 -0.40 -0.90 -1.60 -1.05 -2.60 -0.20 -1 -0.55 -1.95 -0.80 -2.10 -0.25 -0.15 -0.35 -0.45 -0.20 -0.70 0.15 -0.20 -0.10 -0.65 -0.50 -1 -0.40 -0.35 -0.75 -1.10 -0.75 -1.70 0 -0.60 -0.45 -1.90 -1 -2.95 -0.55 -1 -1 -2.15 -1 -2.50 0 -0.35 -0.45 -1.45 -1 -2.50 -0.55 -1 -1 -2.15 -1 -2.50 0 -0.35 -0.40 -1.40 -0.95 -2.35 -0.50 -0.95 -1.10 -2.50 -1.25 -3.40 -0.20 -0.85 -0.55 -1.60 -0.80 -1.60 -0.20 0 -0.65 -1.10 -1 -2.45 -0.30 -1.35 -0.90 -2.90 -1.25 -3.40 -0.40 -0.50 -0.75 -1.05 -0.75 -1.25 0 -0.20 1.75 -0.40 3.90 -0.50 l3.85 -0.15 0.15 -8.40 0.10 -8.35 -25.50 0 -25.50 0 0 8.50 0 8.50 3.50 0 3.50 0 -0.30 1.40 c-0.20 0.75 -0.65 1.70 -1 2.15 -0.40 0.40 -0.70 1.10 -0.70 1.50 0 0.40 -0.45 1.55 -1 2.60 -0.55 1 -1 2.25 -1 2.80 0 0.50 -0.35 1.20 -0.70 1.55 -0.40 0.30 -1 1.80 -1.35 3.30 -0.35 1.50 -0.80 2.70 -1 2.70 -0.20 0 -0.55 0.75 -0.70 1.65 -0.20 0.85 -0.70 1.95 -1.10 2.40 -0.35 0.45 -0.85 1.70 -1 2.75 -0.15 1.10 -0.70 2.55 -1.20 3.30 -0.55 0.70 -0.95 1.70 -0.95 2.25 -0.05 0.50 -0.45 1.80 -1 2.90 -0.55 1.10 -0.95 2.35 -1 2.80 0 0.45 -0.15 0.95 -0.35 1.15 -0.25 0.20 -0.40 0.55 -0.40 0.70 0 0.20 -0.45 1.05 -1.05 1.85 -0.60 0.85 -1.20 2.25 -1.35 3.15 -0.20 0.90 -0.70 2 -1.10 2.40 -0.40 0.45 -0.75 1.25 -0.75 1.85 -0.05 0.60 -0.45 2 -1 3.10 -0.55 1.10 -0.95 2.35 -1 2.80 0 0.45 -0.45 1.40 -1 2.10 -0.55 0.70 -1 1.65 -1 2.20 -0.05 0.50 -0.45 1.80 -1 2.90 -0.55 1.10 -0.95 2.30 -1 2.70 0 0.35 -0.40 1.40 -0.95 2.25 -0.50 0.85 -1.10 2.45 -1.30 3.55 -0.45 2.50 -1.40 3.20 -4.35 3.25 l-2.40 0 0 8.50 0 8.50 17 0 17 0 0 -8.50z"/>
  <path d="M51.20 72.45 c0.15 -0.85 0.30 -1.90 0.30 -2.25 0 -0.40 0.30 -0.65 0.65 -0.55 0.35 0.05 0.65 -0.55 0.75 -1.50 0.10 -0.85 0.50 -1.85 0.90 -2.15 0.40 -0.35 0.70 -0.95 0.70 -1.30 0 -0.40 0.20 -0.70 0.45 -0.70 0.25 0 0.60 -0.90 0.80 -2 0.20 -1.10 0.75 -2.50 1.30 -3.20 0.50 -0.65 0.95 -1.60 0.95 -2.15 0 -0.50 0.45 -1.90 1 -3.10 0.55 -1.20 1 -2.55 1 -3.05 0 -0.50 0.30 -1.15 0.70 -1.45 0.40 -0.35 0.90 -1.35 1.10 -2.20 0.15 -0.90 0.65 -2.25 1.10 -3.10 0.40 -0.80 0.90 -2.15 1.10 -3 0.15 -0.80 0.60 -1.50 1 -1.50 0.40 0 0.85 0.70 1 1.50 0.20 0.85 0.70 2.20 1.10 3 0.45 0.85 0.95 2.20 1.10 3.10 0.20 0.85 0.70 1.85 1.10 2.20 0.40 0.30 0.70 1.05 0.70 1.65 0.05 0.55 0.45 1.95 1 3.05 0.55 1.10 0.95 2.40 1 2.90 0 0.55 0.45 1.50 0.95 2.15 0.55 0.70 1.10 2.10 1.30 3.20 0.20 1.10 0.50 2 0.65 2 0.20 0 0.65 0.75 1.05 1.65 0.35 0.85 1.20 2.80 1.85 4.30 0.65 1.45 1.20 3 1.20 3.35 0 0.60 -2.45 0.70 -14.05 0.70 l-14.05 0 0.30 -1.55z m21.40 -2.70 c0.35 -0.40 -1.10 -4.85 -1.95 -5.80 -0.35 -0.40 -0.65 -1.35 -0.65 -2.05 0 -0.70 -0.30 -1.55 -0.70 -1.85 -0.40 -0.35 -0.90 -1.35 -1.05 -2.20 -0.20 -0.90 -0.75 -2.50 -1.25 -3.60 -0.50 -1.10 -1.05 -2.60 -1.20 -3.35 -0.60 -2.70 -1.30 -1.60 -3.65 5.85 -0.45 1.35 -1.10 2.75 -1.45 3.15 -0.40 0.35 -0.70 1.30 -0.70 2.05 0 0.80 -0.30 1.70 -0.70 2 -0.40 0.30 -0.95 1.55 -1.25 2.70 -0.35 1.15 -0.75 2.40 -0.85 2.75 -0.20 0.45 1.45 0.60 7.45 0.60 4.20 0 7.80 -0.10 7.95 -0.25z"/>
  <path d="M63.80 64.15 c0.15 -1.05 0.50 -2.10 0.75 -2.35 0.65 -0.70 1.30 0.15 1.65 2.35 0.35 1.80 0.30 1.85 -1.20 1.85 -1.50 0 -1.55 -0.05 -1.20 -1.85z"/>
 </g>
</svg>